<svg width="16" height="16" viewBox="0 0 16 16" fill="none" xmlns="http://www.w3.org/2000/svg">
<g clip-path="url(#clip0_1_357)">
<path d="M11.96 11.96C10.8204 12.8286 9.43273 13.3099 7.99999 13.3333C3.33332 13.3333 0.666656 7.99998 0.666656 7.99998C1.49592 6.45457 2.64608 5.10438 4.03999 4.03998M6.59999 2.82664C7.05888 2.71923 7.5287 2.66554 7.99999 2.66664C12.6667 2.66664 15.3333 7.99998 15.3333 7.99998C14.9286 8.75705 14.446 9.4698 13.8933 10.1266M9.41332 9.41331C9.23022 9.60981 9.00942 9.76741 8.76409 9.87673C8.51876 9.98604 8.25392 10.0448 7.98538 10.0496C7.71684 10.0543 7.4501 10.0049 7.20106 9.9043C6.95203 9.80371 6.7258 9.654 6.53589 9.46408C6.34597 9.27416 6.19625 9.04794 6.09566 8.7989C5.99507 8.54987 5.94567 8.28312 5.95041 8.01458C5.95515 7.74604 6.01393 7.48121 6.12324 7.23587C6.23255 6.99054 6.39016 6.76974 6.58666 6.58664" stroke="#7F7F7F" stroke-width="2" stroke-linecap="round" stroke-linejoin="round"/>
<path d="M0.666656 0.666687L15.3333 15.3334" stroke="#7F7F7F" stroke-width="2" stroke-linecap="round" stroke-linejoin="round"/>
</g>
<defs>
<clipPath id="clip0_1_357">
<rect width="16" height="16" fill="white"/>
</clipPath>
</defs>
</svg>
