<svg width="323" height="30" viewBox="0 0 323 30" fill="none" xmlns="http://www.w3.org/2000/svg">
<path d="M24.2179 11.6138C24.2179 11.3389 24.1087 11.0751 23.9142 10.8807C23.7198 10.6863 23.4561 10.577 23.1811 10.577C22.9061 10.577 22.6424 10.6863 22.448 10.8807C22.2535 11.0751 22.1443 11.3389 22.1443 11.6138H24.2179ZM4.86427 11.6138C4.86427 11.3389 4.75504 11.0751 4.5606 10.8807C4.36616 10.6863 4.10245 10.577 3.82747 10.577C3.55249 10.577 3.28878 10.6863 3.09434 10.8807C2.8999 11.0751 2.79067 11.3389 2.79067 11.6138H4.86427ZM25.2132 15.1113C25.3082 15.2132 25.4226 15.2949 25.5498 15.3516C25.677 15.4082 25.8143 15.4387 25.9535 15.4411C26.0927 15.4436 26.231 15.418 26.3601 15.3658C26.4892 15.3137 26.6065 15.2361 26.7049 15.1376C26.8034 15.0392 26.881 14.9219 26.9331 14.7928C26.9853 14.6637 27.0109 14.5254 27.0084 14.3862C27.006 14.247 26.9755 14.1097 26.9188 13.9825C26.8622 13.8553 26.7805 13.7409 26.6786 13.646L25.2132 15.1113ZM13.5043 1.93701L14.237 1.20434C14.0426 1.01018 13.779 0.901123 13.5043 0.901123C13.2295 0.901123 12.966 1.01018 12.7716 1.20434L13.5043 1.93701ZM0.329991 13.646C0.228126 13.7409 0.146423 13.8553 0.0897559 13.9825C0.0330885 14.1097 0.00261759 14.247 0.000161356 14.3862C-0.00229488 14.5254 0.0233136 14.6637 0.0754593 14.7928C0.127605 14.9219 0.205219 15.0392 0.303672 15.1376C0.402125 15.2361 0.5194 15.3137 0.6485 15.3658C0.7776 15.418 0.915881 15.4436 1.05509 15.4411C1.1943 15.4387 1.3316 15.4082 1.45878 15.3516C1.58596 15.2949 1.70042 15.2132 1.79534 15.1113L0.329991 13.646ZM6.59228 27.8571H20.4163V25.7835H6.59228V27.8571ZM24.2179 24.0555V11.6138H22.1443V24.0555H24.2179ZM4.86427 24.0555V11.6138H2.79067V24.0555H4.86427ZM26.6786 13.646L14.237 1.20434L12.7716 2.66969L25.2132 15.1113L26.6786 13.646ZM12.7716 1.20434L0.329991 13.646L1.79534 15.1113L14.237 2.66969L12.7716 1.20434ZM20.4163 27.8571C21.4246 27.8571 22.3915 27.4565 23.1045 26.7436C23.8174 26.0307 24.2179 25.0637 24.2179 24.0555H22.1443C22.1443 25.0093 21.3702 25.7835 20.4163 25.7835V27.8571ZM6.59228 25.7835C5.63842 25.7835 4.86427 25.0093 4.86427 24.0555H2.79067C2.79067 25.0637 3.19119 26.0307 3.90413 26.7436C4.61707 27.4565 5.58403 27.8571 6.59228 27.8571V25.7835Z" fill="#7F7F7F"/>
<path d="M299.882 22.6732C299.882 21.2066 300.464 19.8001 301.501 18.7631C302.538 17.7261 303.945 17.1436 305.411 17.1436H316.471C317.937 17.1436 319.344 17.7261 320.381 18.7631C321.418 19.8001 322 21.2066 322 22.6732C322 23.4064 321.709 24.1097 321.19 24.6282C320.672 25.1467 319.969 25.438 319.235 25.438H302.647C301.913 25.438 301.21 25.1467 300.692 24.6282C300.173 24.1097 299.882 23.4064 299.882 22.6732Z" stroke="#7F7F7F" stroke-width="2" stroke-linejoin="round"/>
<path d="M310.941 11.6138C313.231 11.6138 315.088 9.75699 315.088 7.46655C315.088 5.17611 313.231 3.31934 310.941 3.31934C308.65 3.31934 306.794 5.17611 306.794 7.46655C306.794 9.75699 308.65 11.6138 310.941 11.6138Z" stroke="#7F7F7F" stroke-width="2"/>
<path fill-rule="evenodd" clip-rule="evenodd" d="M235.332 3.97378C235.701 2.16284 237.313 0.881348 239.158 0.881348H243.676C245.521 0.881348 247.132 2.16284 247.502 3.97378C247.543 4.1732 247.65 4.35307 247.806 4.48447C247.961 4.61586 248.156 4.69113 248.36 4.69816H248.405C250.345 4.78387 251.835 5.02165 253.079 5.83865C253.863 6.3529 254.538 7.01369 255.063 7.78645C255.717 8.74584 256.004 9.849 256.142 11.1816C256.278 12.4852 256.278 14.1179 256.278 16.1859V16.3034C256.278 18.3715 256.278 20.0055 256.142 21.3077C256.004 22.6404 255.717 23.7435 255.063 24.7043C254.536 25.4775 253.862 26.1394 253.079 26.6521C252.107 27.2894 250.992 27.5714 249.64 27.7055C248.315 27.8382 246.655 27.8382 244.546 27.8382H238.289C236.179 27.8382 234.519 27.8382 233.195 27.7055C231.843 27.5714 230.727 27.2908 229.755 26.6521C228.972 26.139 228.298 25.4766 227.771 24.7029C227.118 23.7435 226.83 22.6404 226.692 21.3077C226.556 20.0055 226.556 18.3715 226.556 16.3034V16.1859C226.556 14.1179 226.556 12.4852 226.692 11.1816C226.83 9.849 227.118 8.74584 227.771 7.78645C228.298 7.01274 228.972 6.3504 229.755 5.83726C230.999 5.02165 232.49 4.78387 234.429 4.69955L234.453 4.69816H234.475C234.678 4.69113 234.873 4.61586 235.029 4.48447C235.184 4.35307 235.291 4.1732 235.332 3.97378ZM239.158 2.95495C238.274 2.95495 237.531 3.56736 237.364 4.38712C237.094 5.71423 235.917 6.75933 234.5 6.77177C232.636 6.85471 231.638 7.08281 230.892 7.57218C230.337 7.93606 229.859 8.40527 229.486 8.9532C229.104 9.51307 228.875 10.2305 228.753 11.3959C228.631 12.5792 228.63 14.1054 228.63 16.2454C228.63 18.3853 228.63 19.9101 228.754 21.0935C228.875 22.2588 229.104 22.9763 229.487 23.5376C229.857 24.0822 230.334 24.5522 230.893 24.9186C231.469 25.296 232.208 25.5241 233.401 25.643C234.609 25.7632 236.165 25.7646 238.345 25.7646H244.489C246.667 25.7646 248.224 25.7646 249.434 25.643C250.627 25.5241 251.365 25.2974 251.941 24.9186C252.5 24.5522 252.978 24.0822 253.349 23.5362C253.73 22.9763 253.96 22.2588 254.081 21.0935C254.203 19.9101 254.204 18.384 254.204 16.2454C254.204 14.1054 254.204 12.5792 254.08 11.3959C253.96 10.2305 253.73 9.51307 253.347 8.9532C252.974 8.40454 252.496 7.9348 251.941 7.5708C251.198 7.08281 250.2 6.85471 248.333 6.77177C246.918 6.75794 245.74 5.71561 245.47 4.38712C245.382 3.97831 245.155 3.61255 244.828 3.35162C244.501 3.09069 244.094 2.95058 243.676 2.95495H239.158ZM241.417 12.6318C240.592 12.6318 239.801 12.9595 239.218 13.5428C238.634 14.1261 238.307 14.9173 238.307 15.7422C238.307 16.5671 238.634 17.3583 239.218 17.9416C239.801 18.5249 240.592 18.8526 241.417 18.8526C242.242 18.8526 243.033 18.5249 243.617 17.9416C244.2 17.3583 244.528 16.5671 244.528 15.7422C244.528 14.9173 244.2 14.1261 243.617 13.5428C243.033 12.9595 242.242 12.6318 241.417 12.6318ZM236.233 15.7422C236.233 14.3673 236.779 13.0487 237.751 12.0765C238.724 11.1043 240.042 10.5582 241.417 10.5582C242.792 10.5582 244.111 11.1043 245.083 12.0765C246.055 13.0487 246.601 14.3673 246.601 15.7422C246.601 17.1171 246.055 18.4356 245.083 19.4078C244.111 20.38 242.792 20.9262 241.417 20.9262C240.042 20.9262 238.724 20.38 237.751 19.4078C236.779 18.4356 236.233 17.1171 236.233 15.7422ZM248.675 11.595C248.675 11.32 248.784 11.0563 248.978 10.8618C249.173 10.6674 249.437 10.5582 249.712 10.5582H251.094C251.369 10.5582 251.633 10.6674 251.827 10.8618C252.022 11.0563 252.131 11.32 252.131 11.595C252.131 11.8699 252.022 12.1337 251.827 12.3281C251.633 12.5225 251.369 12.6318 251.094 12.6318H249.712C249.437 12.6318 249.173 12.5225 248.978 12.3281C248.784 12.1337 248.675 11.8699 248.675 11.595Z" fill="#7F7F7F"/>
<path d="M93.4528 12.6318V14.7054C93.4528 21.222 93.4528 24.4804 91.4276 26.5042C89.4051 28.5294 86.1454 28.5294 79.6288 28.5294C73.1121 28.5294 69.8538 28.5294 67.8286 26.5042C65.8047 24.4817 65.8047 21.222 65.8047 14.7054C65.8047 8.18873 65.8047 4.93041 67.8286 2.90519C69.8552 0.881348 73.1121 0.881348 79.6288 0.881348H81.7024" stroke="#829DFF" stroke-width="1.4101" stroke-linecap="round"/>
<path d="M72.7167 17.4696L75.2009 14.4891C76.1851 13.3071 76.6773 12.7169 77.3242 12.7169C77.9726 12.7169 78.4647 13.3071 79.449 14.4891L79.8084 14.9204C80.7927 16.1024 81.2848 16.6926 81.9332 16.6926C82.5801 16.6926 83.0723 16.1024 84.0565 14.9204L86.5407 11.9399" stroke="#829DFF" stroke-width="1.4101" stroke-linecap="round"/>
<path d="M89.3056 9.17577C91.596 9.17577 93.4528 7.319 93.4528 5.02856C93.4528 2.73812 91.596 0.881348 89.3056 0.881348C87.0151 0.881348 85.1584 2.73812 85.1584 5.02856C85.1584 7.319 87.0151 9.17577 89.3056 9.17577Z" stroke="#829DFF" stroke-width="1.4101"/>
</svg>
